<svg xmlns="http://www.w3.org/2000/svg" width="19" height="23" viewBox="0 0 19 23">
  <defs>
    <style>
      .cls-1 {
        fill: #fff;
        fill-rule: evenodd;
      }
    </style>
  </defs>
  <path id="Forma_1" data-name="Forma 1" class="cls-1" d="M905.87,633.221a5.2,5.2,0,0,1,2.518-4.379,5.473,5.473,0,0,0-4.266-2.279c-1.817-.182-3.546,1.054-4.468,1.054s-2.343-1.028-3.85-1a5.721,5.721,0,0,0-4.826,2.884c-2.058,3.519-.527,8.734,1.478,11.588,0.98,1.4,2.149,2.967,3.683,2.911,1.478-.059,2.037-0.943,3.823-0.943s2.288,0.943,3.852.913c1.59-.028,2.6-1.423,3.571-2.825A12.629,12.629,0,0,0,909,637.873,5.089,5.089,0,0,1,905.87,633.221Zm-2.938-8.548A5.024,5.024,0,0,0,904.146,621a5.258,5.258,0,0,0-3.437,1.742,4.779,4.779,0,0,0-1.239,3.558A4.351,4.351,0,0,0,902.932,624.673Z" transform="translate(-890 -621)"/>
</svg>
