<svg xmlns="http://www.w3.org/2000/svg" width="33" height="20" viewBox="0 0 33 20">
  <defs>
    <style>
      .cls-1 {
        fill: #fff;
        fill-rule: evenodd;
      }
    </style>
  </defs>
  <path id="Forma_1" data-name="Forma 1" class="cls-1" d="M1075.5,628.491c-1.84,0-7.29.009-7.29,0.009a3.152,3.152,0,0,1,2.05-2.6,1.48,1.48,0,0,0,.84-2,1.676,1.676,0,0,0-2.14-.789,6.234,6.234,0,0,0-4.04,5.385s-5.75.011-7.77,0.011a7.3,7.3,0,0,0-7.15,7.24,7.532,7.532,0,0,0,7.77,7.247,7.658,7.658,0,0,0,6.79-3.4h3.86a7.626,7.626,0,0,0,6.81,3.4A7.266,7.266,0,1,0,1075.5,628.491Zm-17.8,10.038a3.051,3.051,0,1,1,3.26-3.044A3.158,3.158,0,0,1,1057.7,638.529Zm20.13-2.452a1.155,1.155,0,0,1,0,1.717,1.326,1.326,0,0,1-.92.355,1.362,1.362,0,0,1-.92-0.355l-0.63-.592-0.64.592a1.326,1.326,0,0,1-.92.355,1.362,1.362,0,0,1-.92-0.355,1.17,1.17,0,0,1,0-1.717l0.64-.592-0.64-.593a1.169,1.169,0,0,1,0-1.716,1.366,1.366,0,0,1,1.84,0l0.64,0.592,0.63-.592a1.366,1.366,0,0,1,1.84,0,1.154,1.154,0,0,1,0,1.716l-0.63.593Z" transform="translate(-1050 -623)"/>
</svg>
