<svg xmlns="http://www.w3.org/2000/svg" width="56" height="39" viewBox="0 0 56 39">
  <defs>
    <style>
      .cls-1 {
        fill: #fff;
        fill-rule: evenodd;
      }
    </style>
  </defs>
  <path class="cls-1" d="M968.553,1508.47a10.533,10.533,0,0,1-8.014,5.79,1.242,1.242,0,0,0-1.035,1.23v5.15l-9.833-5.39a1.264,1.264,0,0,0-.6-0.15h-4.1c-5.58,0-10.474-5.18-10.474-11.09v-2.34a10.408,10.408,0,0,1,10.474-10.31h5.66v-2.5h-5.66a12.91,12.91,0,0,0-12.975,12.81v2.34c0,7.37,5.941,13.59,12.975,13.59h3.783l11.4,6.25a1.275,1.275,0,0,0,.6.15,1.217,1.217,0,0,0,.637-0.18,1.236,1.236,0,0,0,.614-1.07v-6.25a12.817,12.817,0,0,0,9.234-8.03h-2.686Zm5.784-1.89H955.182a2.682,2.682,0,0,1-2.68-2.69v-16.2a2.682,2.682,0,0,1,2.68-2.69h19.155a2.681,2.681,0,0,1,2.679,2.69v16.2A2.681,2.681,0,0,1,974.337,1506.58ZM988,1504.14l-8.478-5.67v-5.35l8.478-5.68v16.7Z" transform="translate(-932 -1485)"/>
</svg>
